# xmcd
#
# Track frame offsets:
#	150
#	14004
#	28449
#	43972
#	59396
#	73464
#	88592
#	105045
#	119432
#	134991
#	149643
#	165326
#	179005
#	194528
#
# Disc length: 2770 seconds
#
# Revision: 2
# Processed by: cddbd v1.5PL3 Copyright (c) Steve Scherf et al.
# Submitted via: audiograbber 1.80
#
DISCID=e20ad00e
DTITLE=Various Artist - Mr Music Country 2004-01
DYEAR=1900
DGENRE=
TTITLE0=Blake Shelton - Georgia in a jug
TTITLE1=Robin Right - Tex appeal
TTITLE2=John Michael Montgomery - I wanna be there
TTITLE3=Elizabeth Cook - Blue shades
TTITLE4=Porter Wagoner - Moses Jones
TTITLE5=Monte Warden - Another try
TTITLE6=Lacy J. Dalton - Let 'em run
TTITLE7=Billy Don Burns - Where was love
TTITLE8=Dana Pike - Looking on the bright side
TTITLE9=Shane Worley - Number one American cowboy
TTITLE10=Chester Lester - How I wish the same could be said for me
TTITLE11=Jamie Richards - That's me
TTITLE12=Nanci Griffith - Pearl's eye view ( the life of Dickey Chapelle )
TTITLE13=Leland Martin - If I had long legs ( like Alan Jackson )
EXTD=
EXTT0=
EXTT1=
EXTT2=
EXTT3=
EXTT4=
EXTT5=
EXTT6=
EXTT7=
EXTT8=
EXTT9=
EXTT10=
EXTT11=
EXTT12=
EXTT13=
PLAYORDER=
